name rise49.25peak52.1432fall72.8391.mot
datacolumns 19
datarows 18
range 7.60330600000000 7.63163400000000
endheader
time	ground_force1_vx	ground_force1_vy	ground_force1_vz	ground_force1_px	ground_force1_py	ground_force1_pz	ground_force2_vx	ground_force2_vy	ground_force2_vz	ground_force2_px	ground_force2_py	ground_force2_pz	ground_torque1_x	ground_torque1_y	ground_torque1_z	ground_torque2_x	ground_torque2_y	ground_torque2_z	
7.60330600000000	52.30478600000000	763.29000900000005	61.56485100000000	0.30878300000000	0.00000000000000	0.12934500000000	0.00000000000000	0.00000000000000	0.00000000000000	0.00000000000000	0.00000000000000	0.00000000000000	0.00000000000000	24.19772400000000	0.00000000000000	0.00000000000000	0.00000000000000	0.00000000000000	
7.60497100000000	51.64261400000000	765.91949899999997	61.77743700000000	0.30807500000000	0.00000000000000	0.12936400000000	0.00000000000000	0.00000000000000	0.00000000000000	0.00000000000000	0.00000000000000	0.00000000000000	0.00000000000000	24.37297800000000	0.00000000000000	0.00000000000000	0.00000000000000	0.00000000000000	
7.60663300000000	50.98423000000000	768.40400899999997	61.98461100000000	0.30738500000000	0.00000000000000	0.12938500000000	0.00000000000000	0.00000000000000	0.00000000000000	0.00000000000000	0.00000000000000	0.00000000000000	0.00000000000000	24.54503200000000	0.00000000000000	0.00000000000000	0.00000000000000	0.00000000000000	
7.60830300000000	50.32993600000000	770.74203199999999	62.18606600000000	0.30671000000000	0.00000000000000	0.12940600000000	0.00000000000000	0.00000000000000	0.00000000000000	0.00000000000000	0.00000000000000	0.00000000000000	0.00000000000000	24.71358500000000	0.00000000000000	0.00000000000000	0.00000000000000	0.00000000000000	
7.60996600000000	49.67997600000000	772.93230600000004	62.38146400000000	0.30604800000000	0.00000000000000	0.12942800000000	0.00000000000000	0.00000000000000	0.00000000000000	0.00000000000000	0.00000000000000	0.00000000000000	0.00000000000000	24.87832400000000	0.00000000000000	0.00000000000000	0.00000000000000	0.00000000000000	
7.61163400000000	49.03454100000000	774.97382600000003	62.57043700000000	0.30539900000000	0.00000000000000	0.12945100000000	0.00000000000000	0.00000000000000	0.00000000000000	0.00000000000000	0.00000000000000	0.00000000000000	0.00000000000000	25.03892600000000	0.00000000000000	0.00000000000000	0.00000000000000	0.00000000000000	
7.61330000000000	48.39377400000000	776.86585200000002	62.75259000000000	0.30475900000000	0.00000000000000	0.12947500000000	0.00000000000000	0.00000000000000	0.00000000000000	0.00000000000000	0.00000000000000	0.00000000000000	0.00000000000000	25.19505600000000	0.00000000000000	0.00000000000000	0.00000000000000	0.00000000000000	
7.61496700000000	47.75776700000000	778.60791800000004	62.92750700000000	0.30412600000000	0.00000000000000	0.12950000000000	0.00000000000000	0.00000000000000	0.00000000000000	0.00000000000000	0.00000000000000	0.00000000000000	0.00000000000000	25.34637700000000	0.00000000000000	0.00000000000000	0.00000000000000	0.00000000000000	
7.61664000000000	47.12657400000000	780.19983900000000	63.09475400000000	0.30349900000000	0.00000000000000	0.12952500000000	0.00000000000000	0.00000000000000	0.00000000000000	0.00000000000000	0.00000000000000	0.00000000000000	0.00000000000000	25.49254400000000	0.00000000000000	0.00000000000000	0.00000000000000	0.00000000000000	
7.61829900000000	46.50020800000000	781.64171599999997	63.25388000000000	0.30287500000000	0.00000000000000	0.12955200000000	0.00000000000000	0.00000000000000	0.00000000000000	0.00000000000000	0.00000000000000	0.00000000000000	0.00000000000000	25.63321200000000	0.00000000000000	0.00000000000000	0.00000000000000	0.00000000000000	
7.61996800000000	45.87865100000000	782.93394000000001	63.40442500000000	0.30225200000000	0.00000000000000	0.12958000000000	0.00000000000000	0.00000000000000	0.00000000000000	0.00000000000000	0.00000000000000	0.00000000000000	0.00000000000000	25.76803400000000	0.00000000000000	0.00000000000000	0.00000000000000	0.00000000000000	
7.62163500000000	45.26185200000000	784.07719599999996	63.54592500000000	0.30162700000000	0.00000000000000	0.12960900000000	0.00000000000000	0.00000000000000	0.00000000000000	0.00000000000000	0.00000000000000	0.00000000000000	0.00000000000000	25.89666700000000	0.00000000000000	0.00000000000000	0.00000000000000	0.00000000000000	
7.62330200000000	44.64973700000000	785.07246599999996	63.67791000000000	0.30100000000000	0.00000000000000	0.12963900000000	0.00000000000000	0.00000000000000	0.00000000000000	0.00000000000000	0.00000000000000	0.00000000000000	0.00000000000000	26.01877300000000	0.00000000000000	0.00000000000000	0.00000000000000	0.00000000000000	
7.62497200000000	44.04220700000000	785.92102399999999	63.79991400000000	0.30036700000000	0.00000000000000	0.12967000000000	0.00000000000000	0.00000000000000	0.00000000000000	0.00000000000000	0.00000000000000	0.00000000000000	0.00000000000000	26.13402100000000	0.00000000000000	0.00000000000000	0.00000000000000	0.00000000000000	
7.62663600000000	43.43915000000000	786.62443900000005	63.91147500000000	0.29972700000000	0.00000000000000	0.12970200000000	0.00000000000000	0.00000000000000	0.00000000000000	0.00000000000000	0.00000000000000	0.00000000000000	0.00000000000000	26.24208800000000	0.00000000000000	0.00000000000000	0.00000000000000	0.00000000000000	
7.62830400000000	42.84043800000000	787.18457200000000	64.01214200000000	0.29907700000000	0.00000000000000	0.12973500000000	0.00000000000000	0.00000000000000	0.00000000000000	0.00000000000000	0.00000000000000	0.00000000000000	0.00000000000000	26.34266400000000	0.00000000000000	0.00000000000000	0.00000000000000	0.00000000000000	
7.62996800000000	42.24593300000000	787.60356999999999	64.10147499999999	0.29841700000000	0.00000000000000	0.12976900000000	0.00000000000000	0.00000000000000	0.00000000000000	0.00000000000000	0.00000000000000	0.00000000000000	0.00000000000000	26.43545100000000	0.00000000000000	0.00000000000000	0.00000000000000	0.00000000000000	
7.63163400000000	41.65549100000000	787.88386500000001	64.17905399999999	0.29774300000000	0.00000000000000	0.12980400000000	0.00000000000000	0.00000000000000	0.00000000000000	0.00000000000000	0.00000000000000	0.00000000000000	0.00000000000000	26.52016900000000	0.00000000000000	0.00000000000000	0.00000000000000	0.00000000000000	
